<svg width="22" height="22" viewBox="0 0 22 22" fill="none" xmlns="http://www.w3.org/2000/svg">
<path d="M20.1388 16.8025C20.1388 17.1325 20.0655 17.4717 19.9097 17.8017C19.7538 18.1317 19.5522 18.4433 19.2863 18.7367C18.8372 19.2317 18.3422 19.5892 17.783 19.8183C17.233 20.0475 16.6372 20.1667 15.9955 20.1667C15.0605 20.1667 14.0613 19.9467 13.0072 19.4975C11.953 19.0483 10.8988 18.4433 9.85384 17.6825C8.79967 16.9125 7.80051 16.06 6.84717 15.1158C5.90301 14.1625 5.05051 13.1633 4.28967 12.1183C3.53801 11.0733 2.93301 10.0283 2.49301 8.9925C2.05301 7.9475 1.83301 6.94834 1.83301 5.995C1.83301 5.37167 1.94301 4.77584 2.16301 4.22584C2.38301 3.66667 2.73134 3.15334 3.21717 2.695C3.80384 2.1175 4.44551 1.83334 5.12384 1.83334C5.38051 1.83334 5.63717 1.88834 5.86634 1.99834C6.10467 2.10834 6.31551 2.27334 6.48051 2.51167L8.60717 5.50917C8.77217 5.73834 8.89134 5.94917 8.97384 6.15084C9.05634 6.34334 9.10217 6.53584 9.10217 6.71C9.10217 6.93 9.03801 7.15 8.90967 7.36084C8.79051 7.57167 8.61634 7.79167 8.39634 8.01167L7.69967 8.73584C7.59884 8.83667 7.55301 8.95584 7.55301 9.1025C7.55301 9.17584 7.56217 9.24 7.58051 9.31334C7.60801 9.38667 7.63551 9.44167 7.65384 9.49667C7.81884 9.79917 8.10301 10.1933 8.50634 10.67C8.91884 11.1467 9.35884 11.6325 9.83551 12.1183C10.3305 12.6042 10.8072 13.0533 11.293 13.4658C11.7697 13.8692 12.1638 14.1442 12.4755 14.3092C12.5213 14.3275 12.5763 14.355 12.6405 14.3825C12.7138 14.41 12.7872 14.4192 12.8697 14.4192C13.0255 14.4192 13.1447 14.3642 13.2455 14.2633L13.9422 13.5758C14.1713 13.3467 14.3913 13.1725 14.6022 13.0625C14.813 12.9342 15.0238 12.87 15.253 12.87C15.4272 12.87 15.6105 12.9067 15.8122 12.9892C16.0138 13.0717 16.2247 13.1908 16.4538 13.3467L19.488 15.5008C19.7263 15.6658 19.8913 15.8583 19.9922 16.0875C20.0838 16.3167 20.1388 16.5458 20.1388 16.8025Z" fill="#191D31"/>
</svg>
