<svg width="26" height="26" viewBox="0 0 26 26" fill="none" xmlns="http://www.w3.org/2000/svg">
<path d="M8.66716 10.8308C8.66716 10.5435 8.78129 10.268 8.98445 10.0648C9.18761 9.86162 9.46315 9.74749 9.75046 9.74749H16.2503C16.5376 9.74749 16.8131 9.86162 17.0163 10.0648C17.2194 10.268 17.3336 10.5435 17.3336 10.8308C17.3336 11.1181 17.2194 11.3937 17.0163 11.5968C16.8131 11.8 16.5376 11.9142 16.2503 11.9142H9.75046C9.46315 11.9142 9.18761 11.8 8.98445 11.5968C8.78129 11.3937 8.66716 11.1181 8.66716 10.8308ZM9.75046 14.0808C9.46315 14.0808 9.18761 14.195 8.98445 14.3981C8.78129 14.6013 8.66716 14.8768 8.66716 15.1641C8.66716 15.4515 8.78129 15.727 8.98445 15.9302C9.18761 16.1333 9.46315 16.2475 9.75046 16.2475H14.0837C14.371 16.2475 14.6465 16.1333 14.8497 15.9302C15.0528 15.727 15.167 15.4515 15.167 15.1641C15.167 14.8768 15.0528 14.6013 14.8497 14.3981C14.6465 14.195 14.371 14.0808 14.0837 14.0808H9.75046ZM0.000748054 12.9975C0.00130088 10.1354 0.946308 7.35353 2.68917 5.08337C4.43204 2.8132 6.87534 1.18166 9.64005 0.441834C12.4048 -0.29799 15.3363 -0.104739 17.98 0.991608C20.6237 2.08795 22.8317 4.02611 24.2615 6.50542C25.6913 8.98473 26.263 11.8666 25.8878 14.704C25.5127 17.5413 24.2117 20.1756 22.1867 22.1981C20.1617 24.2206 17.5259 25.5184 14.6882 25.8899C11.8504 26.2615 8.96934 25.6862 6.49189 24.2533L1.42637 25.9433C1.23923 26.0058 1.03857 26.016 0.846058 25.9728C0.653546 25.9296 0.47649 25.8346 0.333998 25.6981C0.191507 25.5616 0.0889926 25.3888 0.0375177 25.1984C-0.0139572 25.0079 -0.0124372 24.807 0.0419136 24.6173L1.58453 19.2201C0.544609 17.311 7.0241e-05 15.1715 0.000748054 12.9975ZM13.0004 2.16416C11.0876 2.16404 9.209 2.67036 7.55538 3.63165C5.90176 4.59295 4.53213 5.97494 3.58572 7.63715C2.63931 9.29937 2.14985 11.1825 2.16711 13.0952C2.18437 15.0079 2.70772 16.8819 3.68397 18.5268C3.75908 18.6539 3.80744 18.7949 3.82607 18.9414C3.8447 19.0878 3.83321 19.2365 3.7923 19.3783L2.6895 23.235L6.28173 22.039C6.43429 21.9881 6.59627 21.9718 6.75592 21.9912C6.91556 22.0107 7.06887 22.0655 7.2047 22.1516C8.62441 23.0501 10.2336 23.6061 11.9052 23.7756C13.5768 23.945 15.2648 23.7234 16.836 23.1281C18.4071 22.5328 19.8183 21.5802 20.9579 20.3456C22.0975 19.111 22.9343 17.6283 23.4023 16.0146C23.8702 14.4009 23.9563 12.7004 23.6539 11.0477C23.3516 9.39496 22.6689 7.83521 21.6599 6.49173C20.651 5.14826 19.3433 4.0579 17.8404 3.30682C16.3375 2.55575 14.6805 2.16455 13.0004 2.16416Z" fill="#9C9C9C"/>
</svg>
