<svg width="26" height="27" viewBox="0 0 26 27" fill="none" xmlns="http://www.w3.org/2000/svg">
<path d="M10.9861 1.34447C11.5497 0.869505 12.263 0.609009 13 0.609009C13.737 0.609009 14.4503 0.869505 15.0139 1.34447L24.3889 9.25003C25.0931 9.84447 25.5 10.7181 25.5 11.6389V24.5695C25.5 25.2141 25.2439 25.8323 24.7881 26.2881C24.3323 26.744 23.7141 27 23.0694 27H18.2083C17.5637 27 16.9455 26.744 16.4897 26.2881C16.0339 25.8323 15.7778 25.2141 15.7778 24.5695V17.6153C15.7778 17.5232 15.7412 17.4349 15.6761 17.3698C15.611 17.3047 15.5226 17.2681 15.4306 17.2681H10.5694C10.4774 17.2681 10.389 17.3047 10.3239 17.3698C10.2588 17.4349 10.2222 17.5232 10.2222 17.6153V24.5695C10.2222 25.2141 9.96615 25.8323 9.51033 26.2881C9.05451 26.744 8.43629 27 7.79167 27H2.93056C2.61137 27 2.29531 26.9372 2.00042 26.815C1.70553 26.6929 1.43759 26.5138 1.21189 26.2881C0.986195 26.0624 0.807162 25.7945 0.685015 25.4996C0.562868 25.2047 0.5 24.8887 0.5 24.5695V11.6389C0.5 10.7181 0.906944 9.84447 1.61111 9.25003L10.9861 1.34447ZM13.6708 2.93753C13.483 2.77945 13.2455 2.69276 13 2.69276C12.7545 2.69276 12.517 2.77945 12.3292 2.93753L2.95417 10.8417C2.83815 10.9394 2.74486 11.0612 2.68081 11.1986C2.61675 11.3361 2.58349 11.4859 2.58333 11.6375V24.5681C2.58333 24.7598 2.73889 24.9153 2.93056 24.9153H7.79167C7.88376 24.9153 7.97207 24.8787 8.03719 24.8136C8.10231 24.7485 8.13889 24.6602 8.13889 24.5681V17.6139C8.13889 16.2709 9.22778 15.1834 10.5694 15.1834H15.4306C16.7722 15.1834 17.8611 16.2709 17.8611 17.6139V24.5681C17.8611 24.7598 18.0167 24.9153 18.2083 24.9153H23.0694C23.1615 24.9153 23.2498 24.8787 23.315 24.8136C23.3801 24.7485 23.4167 24.6602 23.4167 24.5681V11.6375C23.4165 11.4859 23.3832 11.3361 23.3192 11.1986C23.2551 11.0612 23.1618 10.9394 23.0458 10.8417L13.6708 2.93753Z" fill="#9C9C9C"/>
</svg>
