<svg width="25" height="28" viewBox="0 0 25 28" fill="none" xmlns="http://www.w3.org/2000/svg">
<path fill-rule="evenodd" clip-rule="evenodd" d="M18.0556 16.8889C19.8451 16.889 21.5655 17.5799 22.858 18.8176C24.1505 20.0553 24.9154 21.7441 24.9931 23.532L25 23.8333V25.2222C25.0002 25.923 24.7355 26.598 24.259 27.1119C23.7825 27.6257 23.1294 27.9405 22.4306 27.9931L22.2222 28H2.77778C2.07698 28.0002 1.40199 27.7356 0.888128 27.259C0.374265 26.7825 0.0595046 26.1294 0.0069446 25.4306L0 25.2222V23.8333C0.000103392 22.0438 0.69103 20.3234 1.92869 19.0309C3.16636 17.7383 4.85521 16.9735 6.64306 16.8958L6.94444 16.8889H18.0556ZM18.0556 19.6667H6.94444C5.88165 19.6666 4.85901 20.0727 4.08575 20.8018C3.31249 21.5309 2.84707 22.5279 2.78472 23.5889L2.77778 23.8333V25.2222H22.2222V23.8333C22.2223 22.7705 21.8162 21.7479 21.0871 20.9746C20.358 20.2014 19.361 19.736 18.3 19.6736L18.0556 19.6667ZM12.5 0.222229C14.3418 0.222229 16.1081 0.953874 17.4105 2.25621C18.7128 3.55855 19.4444 5.32489 19.4444 7.16667C19.4444 9.00846 18.7128 10.7748 17.4105 12.0771C16.1081 13.3795 14.3418 14.1111 12.5 14.1111C10.6582 14.1111 8.89187 13.3795 7.58954 12.0771C6.2872 10.7748 5.55556 9.00846 5.55556 7.16667C5.55556 5.32489 6.2872 3.55855 7.58954 2.25621C8.89187 0.953874 10.6582 0.222229 12.5 0.222229ZM12.5 3.00001C11.9528 3.00001 11.411 3.10778 10.9055 3.31718C10.4 3.52657 9.94063 3.83348 9.55372 4.2204C9.16681 4.60731 8.8599 5.06664 8.6505 5.57216C8.44111 6.07768 8.33333 6.6195 8.33333 7.16667C8.33333 7.71385 8.44111 8.25566 8.6505 8.76119C8.8599 9.26671 9.16681 9.72604 9.55372 10.113C9.94063 10.4999 10.4 10.8068 10.9055 11.0162C11.411 11.2256 11.9528 11.3333 12.5 11.3333C13.6051 11.3333 14.6649 10.8944 15.4463 10.113C16.2277 9.33155 16.6667 8.27174 16.6667 7.16667C16.6667 6.0616 16.2277 5.0018 15.4463 4.2204C14.6649 3.43899 13.6051 3.00001 12.5 3.00001Z" fill="#9C9C9C"/>
</svg>
