<svg width="18" height="18" viewBox="0 0 18 18" fill="none" xmlns="http://www.w3.org/2000/svg">
<path d="M10.7787 7.22123L8.11154 9.88813M16.3692 1.02602C16.4536 0.996907 16.5444 0.992117 16.6314 1.01219C16.7183 1.03227 16.7979 1.0764 16.8609 1.13955C16.924 1.20269 16.968 1.2823 16.988 1.36928C17.0079 1.45626 17.003 1.54709 16.9738 1.6314L11.7069 16.6816C11.6754 16.7716 11.6176 16.85 11.5409 16.9067C11.4643 16.9634 11.3724 16.9958 11.2771 16.9996C11.1819 17.0034 11.0877 16.9786 11.0067 16.9282C10.9258 16.8778 10.8618 16.8043 10.8232 16.7172L7.96129 10.2793C7.91314 10.1722 7.82742 10.0865 7.72035 10.0384L1.28173 7.17589C1.19487 7.13712 1.12163 7.07318 1.07147 6.99235C1.02132 6.91153 0.996557 6.81752 1.00039 6.72247C1.00421 6.62743 1.03646 6.53572 1.09295 6.45919C1.14944 6.38265 1.22759 6.32482 1.3173 6.29315L16.3692 1.02602Z" stroke="white" stroke-linecap="round" stroke-linejoin="round"/>
</svg>
